<svg width="220" height="80" viewBox="0 0 220 80" xmlns="http://www.w3.org/2000/svg" role="img" aria-label="under $11 per month all-in OPEX">
  <title>&lt;$11/mo all-in OPEX</title>
  <defs>
    <linearGradient id="bg-opex-l" x1="0" y1="0" x2="0" y2="1">
      <stop offset="0" stop-color="#FFFFFF"/>
      <stop offset="1" stop-color="#F5F5F7"/>
    </linearGradient>
    <filter id="sh-opex-l" x="-5%" y="-5%" width="110%" height="120%">
      <feGaussianBlur in="SourceAlpha" stdDeviation="1.2"/>
      <feOffset dx="0" dy="1" result="off"/>
      <feComponentTransfer><feFuncA type="linear" slope="0.08"/></feComponentTransfer>
      <feMerge><feMergeNode/><feMergeNode in="SourceGraphic"/></feMerge>
    </filter>
  </defs>
  <rect width="220" height="80" rx="8" fill="url(#bg-opex-l)" stroke="#D8D8DC" stroke-width="1" filter="url(#sh-opex-l)"/>
  <rect x="0" y="0" width="3" height="80" rx="2" fill="#00A87A"/>
  <g stroke="#C8CBD4" stroke-width="0.8" fill="none">
    <path d="M205 8 L213 8 M209 4 L209 12"/>
  </g>
  <g transform="translate(20,28)" stroke="#00A87A" stroke-width="1.5" fill="none" stroke-linecap="round" stroke-linejoin="round">
    <circle cx="12" cy="12" r="10"/>
    <path d="M15 8 Q12 7 10 9 Q8 11 10 13 L14 15 Q16 16 14 18 Q12 19 9 17"/>
    <path d="M12 5 V7 M12 17 V19"/>
  </g>
  <text x="56" y="38" fill="#007458" font-family="'JetBrains Mono','SFMono-Regular',ui-monospace,monospace" font-size="22" font-weight="700" letter-spacing="-0.5">&lt;$11<tspan fill="#5A5F6E" font-size="14" font-weight="500">/mo</tspan></text>
  <text x="56" y="56" fill="#5A5F6E" font-family="'Inter',ui-sans-serif,system-ui,sans-serif" font-size="11" font-weight="500">all-in OPEX</text>
  <text x="20" y="70" fill="#9094A0" font-family="'JetBrains Mono','SFMono-Regular',ui-monospace,monospace" font-size="9" font-weight="500" letter-spacing="1.4">COST</text>
</svg>
