<svg width="220" height="80" viewBox="0 0 220 80" xmlns="http://www.w3.org/2000/svg" role="img" aria-label="94.9k chunks · 21.5k relations">
  <title>94.9k chunks · 21.5k relations</title>
  <defs>
    <linearGradient id="bg-scale-d" x1="0" y1="0" x2="0" y2="1">
      <stop offset="0" stop-color="#1A1F2E"/>
      <stop offset="1" stop-color="#0E0E10"/>
    </linearGradient>
  </defs>
  <rect width="220" height="80" rx="8" fill="url(#bg-scale-d)" stroke="#2A2F3E" stroke-width="1"/>
  <rect x="0" y="0" width="3" height="80" rx="2" fill="#00C896"/>
  <g stroke="#3A3F4E" stroke-width="0.8" fill="none">
    <path d="M205 8 L213 8 M209 4 L209 12"/>
  </g>
  <g transform="translate(20,28)" stroke="#00C896" stroke-width="1.5" fill="none" stroke-linecap="round" stroke-linejoin="round">
    <ellipse cx="12" cy="5" rx="9" ry="3"/>
    <path d="M3 5 V12 C3 13.7 7 15 12 15 C17 15 21 13.7 21 12 V5"/>
    <path d="M3 12 V19 C3 20.7 7 22 12 22 C17 22 21 20.7 21 19 V12"/>
  </g>
  <text x="56" y="38" fill="#00C896" font-family="'JetBrains Mono','SFMono-Regular',ui-monospace,monospace" font-size="22" font-weight="700" letter-spacing="-0.5">94.9k</text>
  <text x="56" y="56" fill="#A0A4B0" font-family="'Inter',ui-sans-serif,system-ui,sans-serif" font-size="11" font-weight="500">chunks · 21.5k relations</text>
  <text x="20" y="70" fill="#5A5F6E" font-family="'JetBrains Mono','SFMono-Regular',ui-monospace,monospace" font-size="9" font-weight="500" letter-spacing="1.4">SCALE</text>
</svg>
